<svg version="1.2" xmlns="http://www.w3.org/2000/svg" viewBox="0 0 578 495" width="578" height="495">
	<style>
		.s0 { fill: #74c8d8 } 
	</style>
	<g id="Layer">
		<path id="Layer" fill-rule="evenodd" class="s0" d="m400.7 325.4c-31.9-48.2-66.6-95.8-112-131.1-38-29.7-83.4-49.8-129.3-66.6 19.6 24.6 38.6 48.7 58.2 73.3 4.5 5.6 9.5 12.4 9.5 19.6 0 8.4-5.6 15.7-10.6 21.9-5 6.7-12.3 14-20.7 11.7-4.5-0.5-7.9-4.4-10.7-7.8-42-47.6-83.4-95.2-125.4-142.8-2.8-2.2-5-5-6.2-8.4-2.8-7.3 0.6-15.1 5.1-21.3 16.8-20.7 47-22.9 73.9-22.9 43.7 0 87.4 0.5 128.8 12.8 1.1 0.6 2.8 1.2 3.4 2.3 1.6 1.7 0 4.5-1.2 6.7-6.1 9.5-13.4 20.2-24 23.5-14.6 5.1-30.3-3.9-44.8-1.1 68.8 23 131.6 63.8 180.3 118.2 25.2 28.5 47 60.4 68.3 92.4 20.2 30.8 40.9 61.6 54.9 95.7 3.3 8.4 6.7 17.9 4.5 26.9-2.8 9.5-11.8 17.4-21.3 17.9-10.1 0.6-20.2-6.1-23.5-15.1-14.6-37-35.9-71.1-57.2-105.8zm-51.5-128.8c0-1.7-1.1-3.4-2.2-4.5-3.4-3.9-7.3-6.7-11.8-9 3.4 5.6 7.9 10.7 14 13.5zm-15.1-15.7c-1.1-3.4-4.5-6.2-8.4-6.7 1.1 2.8 2.8 5 5 6.1 0.6 1.1 2.3 2.3 3.4 0.6zm-24.1-17.9c2.3 3.3 5.6 6.1 9.5 7.2-1.6-3.3-5-5.6-8.4-7.2z"/>		
	</g>
</svg>