<?xml version="1.0" standalone="no"?>
<!DOCTYPE svg PUBLIC "-//W3C//DTD SVG 20010904//EN"
 "http://www.w3.org/TR/2001/REC-SVG-20010904/DTD/svg10.dtd">
<svg version="1.0" xmlns="http://www.w3.org/2000/svg"
 width="520.000000pt" height="520.000000pt" viewBox="0 0 520.000000 520.000000"
 preserveAspectRatio="xMidYMid meet">
<metadata>
Created by potrace 1.14, written by Peter Selinger 2001-2017
</metadata>
<g transform="translate(0.000000,520.000000) scale(0.100000,-0.100000)"
fill="#000000" stroke="none">
<path d="M2098 5128 c-73 -38 -145 -82 -160 -98 -37 -40 -52 -121 -44 -242 7
-112 -7 -191 -34 -183 -51 15 -212 36 -250 32 -63 -7 -104 -53 -97 -109 8 -62
56 -145 119 -207 32 -31 58 -59 58 -62 0 -16 -213 34 -323 76 -69 26 -223 99
-243 116 -8 6 -38 -21 -101 -93 -50 -57 -126 -143 -169 -193 -43 -49 -192
-222 -331 -384 l-252 -294 50 -61 c93 -114 151 -201 199 -301 65 -134 84 -219
77 -338 -6 -113 -23 -161 -154 -457 -113 -254 -141 -327 -177 -453 -58 -202
-69 -373 -35 -540 38 -190 109 -343 239 -516 60 -80 68 -95 78 -160 17 -102
57 -193 110 -252 43 -48 48 -51 85 -46 21 3 65 21 97 41 l58 36 67 -30 c111
-50 227 -88 342 -111 94 -20 142 -23 368 -24 205 -2 272 -5 316 -18 110 -31
170 -68 267 -161 l93 -90 82 81 c97 96 140 124 244 160 77 26 83 27 343 28
205 1 285 5 355 19 109 21 274 75 372 122 261 125 494 362 628 639 64 132 91
224 107 367 27 242 -30 482 -209 878 -76 167 -84 190 -107 292 -8 37 -27 93
-42 124 -24 51 -26 64 -21 138 3 44 14 108 24 141 l20 60 71 -143 72 -142 43
21 c225 115 469 311 606 488 l60 78 -227 203 c-246 219 -408 373 -425 405 -23
44 -178 245 -246 320 -123 135 -209 181 -363 192 -63 5 -82 3 -103 -11 -15
-10 -32 -15 -38 -13 -7 2 -28 -6 -47 -18 -86 -53 -347 -155 -397 -155 -19 0
-20 3 -11 43 16 68 3 230 -27 332 -33 114 -73 181 -152 255 -70 66 -151 109
-273 144 -118 34 -227 68 -352 109 l-107 34 -133 -69z m216 -105 c56 -50 99
-98 103 -112 9 -36 -19 -135 -64 -228 -38 -77 -39 -78 -88 -89 -28 -7 -98 -13
-157 -13 -93 -1 -107 1 -112 17 -30 102 -39 319 -16 365 10 20 48 47 120 87
58 32 108 58 111 59 4 1 50 -38 103 -86z m452 -149 c58 -28 59 -30 86 -104 34
-96 35 -110 3 -110 -44 0 -110 39 -183 109 -76 72 -97 107 -79 130 18 21 106
9 173 -25z m160 -137 c20 -30 22 -41 14 -58 -6 -11 -16 -19 -22 -17 -8 3 -68
141 -68 157 0 11 55 -48 76 -82z m-661 -318 c50 -6 133 -20 185 -31 77 -16 99
-25 117 -46 11 -15 52 -43 90 -62 87 -44 90 -53 77 -214 -10 -122 -11 -127
-62 -230 -29 -58 -62 -111 -73 -116 -21 -12 -75 -5 -84 10 -3 5 1 23 10 39 20
40 19 42 -11 31 -28 -11 -104 -13 -129 -4 -8 4 -22 19 -31 35 -16 31 -108 109
-128 109 -8 0 -11 -10 -8 -30 5 -35 8 -34 -105 -18 -107 14 -107 10 -9 192 30
57 32 82 10 130 -12 24 -32 42 -70 60 -29 14 -58 26 -63 26 -12 0 -15 80 -4
119 6 23 7 23 102 17 53 -4 137 -12 186 -17z m1370 -313 l69 -78 -41 -37 c-50
-43 -65 -96 -39 -136 16 -25 16 -26 -20 -58 -21 -17 -52 -43 -70 -57 -17 -14
-116 -97 -219 -185 -103 -88 -193 -163 -200 -168 -9 -4 -34 11 -72 43 -32 28
-75 58 -95 68 -36 17 -48 36 -48 77 0 19 6 20 106 17 135 -4 226 11 292 49
117 66 117 182 -1 382 l-45 76 68 20 c37 12 103 36 146 55 59 25 82 31 90 22
6 -6 41 -46 79 -90z m-2427 80 c52 -27 230 -84 328 -106 54 -12 151 -25 214
-28 95 -6 114 -10 111 -22 -2 -8 -6 -66 -9 -128 l-5 -114 -28 4 c-20 3 -29 0
-29 -9 0 -18 37 -90 50 -98 8 -5 7 -14 -3 -28 -29 -47 -93 -215 -142 -379
l-26 -86 -42 -7 c-105 -18 -340 -77 -419 -105 -159 -58 -216 -129 -327 -412
-40 -101 -88 -218 -107 -261 -20 -43 -51 -135 -71 -204 -47 -167 -89 -244
-147 -272 -24 -11 -53 -32 -65 -47 -12 -15 -21 -24 -21 -21 0 23 96 257 183
447 144 315 173 463 131 668 -30 144 -121 336 -215 456 -34 42 -37 51 -26 65
30 36 201 236 322 376 204 237 286 325 302 325 8 0 26 -6 41 -14z m1783 -86
c30 -17 52 -69 51 -128 0 -57 -18 -94 -54 -113 -13 -6 -50 -37 -83 -69 -33
-31 -66 -59 -74 -61 -17 -6 -18 -53 -8 -229 l8 -136 -48 -61 c-26 -34 -51 -62
-54 -62 -3 -1 0 34 8 77 15 87 59 371 73 477 6 39 22 118 36 177 25 105 27
107 62 122 45 18 58 19 83 6z m1119 -15 c0 -3 -15 -15 -34 -27 -18 -13 -73
-53 -121 -91 -49 -37 -90 -65 -93 -63 -2 3 6 18 19 34 49 60 229 176 229 147z
m-2114 -46 c-8 -40 -45 -101 -57 -93 -12 7 -11 81 1 105 6 11 21 19 37 19 23
0 25 -3 19 -31z m1779 -266 c10 -16 61 -88 113 -162 l96 -134 -41 -36 c-22
-20 -96 -75 -164 -123 -146 -102 -214 -157 -459 -378 -371 -334 -517 -463
-531 -468 -4 -2 -13 7 -20 20 -7 13 -23 38 -37 56 l-25 33 -51 -49 c-41 -40
-166 -143 -211 -174 -5 -4 -28 -22 -50 -40 -22 -19 -61 -50 -87 -71 l-47 -38
-55 28 -56 28 83 65 c359 281 576 521 706 778 24 47 48 73 118 129 135 109
290 237 493 407 102 85 190 155 196 155 7 1 20 -11 29 -26z m-1530 -77 c17
-12 13 -14 -42 -21 -85 -10 -141 4 -116 28 12 13 139 7 158 -7z m-219 -71 c37
-19 171 -20 242 -1 49 13 53 13 62 -4 18 -33 11 -68 -17 -90 -33 -25 -58 -21
-124 21 -54 34 -63 35 -112 9 -78 -42 -133 -7 -97 61 13 23 11 23 46 4z m2818
-233 c25 -23 46 -47 46 -53 0 -24 -259 -267 -352 -331 -124 -85 -236 -150
-246 -144 -5 3 -14 37 -21 76 -10 56 -10 74 -1 85 7 8 17 15 23 15 13 0 128
77 228 153 42 31 118 99 170 151 52 51 97 93 100 92 4 0 28 -20 53 -44z m-834
-71 l20 -40 -34 -73 c-18 -40 -44 -104 -56 -143 -13 -38 -25 -71 -26 -73 -1
-2 -14 4 -28 13 -23 15 -54 25 -219 67 -26 7 -46 17 -44 23 4 12 345 265 358
265 5 0 18 -18 29 -39z m-2484 -293 c-4 -18 -10 -48 -13 -65 -5 -32 -7 -33
-54 -33 -37 0 -54 -6 -80 -27 -40 -34 -54 -67 -70 -167 l-12 -78 -24 83 c-25
89 -49 132 -77 137 -24 5 -20 -32 9 -82 33 -57 75 -182 74 -220 -1 -17 -4 -42
-8 -56 -6 -19 -11 -5 -26 68 -11 55 -22 87 -27 80 -4 -7 -8 -59 -8 -116 l0
-103 -31 16 c-44 23 -175 55 -226 55 -26 0 -43 5 -43 12 0 16 110 223 154 289
81 123 249 210 460 238 5 0 5 -14 2 -31z m1213 -80 c-81 -118 -289 -348 -313
-348 -3 0 -4 12 -2 28 2 15 7 50 11 78 6 48 10 54 55 83 50 32 130 115 130
134 0 6 -17 -5 -37 -25 -39 -37 -112 -88 -125 -88 -5 0 -8 12 -7 28 1 44 75
91 184 118 129 32 131 31 104 -8z m794 13 c23 -6 76 -18 117 -27 118 -27 200
-73 252 -141 70 -91 98 -150 125 -263 22 -91 25 -118 19 -200 -4 -51 -8 -95
-9 -97 -2 -1 -12 0 -23 3 -16 4 -23 19 -32 77 -36 212 -218 322 -390 236 -72
-36 -105 -72 -144 -156 l-28 -63 -59 0 c-32 0 -73 -3 -91 -7 l-33 -6 6 54 7
54 -25 -45 c-53 -97 -115 -350 -115 -469 0 -16 -7 -34 -16 -42 -12 -10 -15
-29 -12 -87 l3 -74 -34 6 c-19 3 -38 9 -42 13 -8 8 13 216 46 443 8 58 15 110
15 116 0 7 11 15 25 18 14 4 25 14 26 24 0 9 4 39 8 66 7 41 5 52 -11 68 -18
18 -18 21 -1 109 l18 90 170 154 c94 84 174 154 178 154 5 1 27 -3 50 -8z
m-1783 -83 c68 -84 117 -130 166 -154 30 -15 54 -27 54 -28 0 0 -11 -86 -24
-190 -16 -125 -29 -192 -38 -197 -7 -5 -29 -9 -48 -9 -49 0 -128 -48 -216
-132 -59 -57 -73 -66 -64 -43 6 15 8 42 4 60 -5 28 -3 32 17 31 23 -1 24 5 71
304 26 168 47 315 47 327 1 13 -7 24 -19 28 -11 4 -20 15 -20 26 0 29 38 16
70 -23z m185 -43 c43 -7 45 -9 45 -41 0 -18 -4 -35 -9 -38 -14 -9 -103 41
-151 84 l-45 40 57 -19 c32 -11 78 -23 103 -26z m-450 -17 c78 -35 71 -203
-10 -240 -36 -16 -80 5 -100 49 -32 67 -5 159 56 190 29 15 23 15 54 1z m-105
-278 c34 -27 99 -26 134 1 32 25 32 25 11 -111 -8 -52 -15 -99 -15 -103 0 -5
-14 -6 -31 -2 -46 10 -50 11 -100 19 -25 4 -50 11 -56 14 -11 7 15 202 26 202
3 0 17 -9 31 -20z m1670 -100 c24 -2 24 -2 -4 -10 -31 -10 -101 1 -117 17 -6
6 12 6 43 2 29 -4 64 -8 78 -9z m-198 -71 c-4 -35 -1 -41 18 -46 26 -7 27 15
-16 -315 -18 -139 -32 -218 -39 -218 -26 0 -156 50 -241 93 l-92 46 -5 68 c-3
37 -8 77 -11 88 -5 16 11 33 86 90 50 39 137 107 192 152 56 45 103 82 106 83
3 0 4 -18 2 -41z m-182 7 c0 -3 -4 -8 -10 -11 -5 -3 -10 -1 -10 4 0 6 5 11 10
11 6 0 10 -2 10 -4z m-1180 -165 c33 -24 37 -64 10 -91 -19 -19 -29 -21 -73
-15 -84 10 -122 70 -76 116 18 18 29 20 68 15 25 -3 57 -14 71 -25z m-608 -51
c76 -21 191 -70 276 -118 l83 -47 -6 -70 c-9 -113 -15 -135 -31 -135 -33 0
-124 -53 -163 -95 l-41 -45 -68 10 c-109 16 -162 12 -219 -15 -62 -28 -68 -45
-17 -45 l37 0 -27 -32 c-72 -89 -137 -225 -159 -335 -6 -32 -12 -60 -14 -62
-1 -2 -20 8 -42 22 -22 15 -42 23 -45 19 -10 -16 34 -92 59 -104 29 -13 34
-48 8 -48 -36 0 -81 38 -93 77 -50 177 -29 337 56 432 50 56 155 136 227 174
27 14 44 28 39 31 -8 5 -81 -4 -157 -20 l-30 -6 45 46 c44 45 45 46 110 46 78
0 163 -19 271 -61 44 -17 83 -28 87 -24 22 22 -162 127 -270 154 -40 10 -72
22 -71 25 1 4 11 19 21 34 l20 26 72 -17 c102 -24 167 -58 227 -116 28 -28 56
-51 62 -51 23 0 9 29 -55 110 -92 117 -92 117 -74 104 8 -6 34 -25 58 -43 24
-19 45 -31 48 -28 6 6 -180 157 -194 157 -21 0 -13 -14 58 -99 39 -46 70 -85
70 -85 0 -1 -35 15 -77 36 -43 21 -102 43 -131 49 -44 9 -52 14 -47 27 4 10 9
35 12 57 8 72 13 87 28 81 7 -2 33 -10 57 -16z m688 -74 c0 -2 -8 -10 -17 -17
-16 -13 -17 -12 -4 4 13 16 21 21 21 13z m2678 -281 c78 -299 36 -552 -133
-804 -43 -64 -143 -188 -134 -166 2 6 34 70 71 143 80 156 119 269 148 420 18
94 21 140 18 306 -2 107 0 192 3 188 4 -4 16 -43 27 -87z m-883 46 c83 -11
173 -27 200 -36 95 -32 234 -103 310 -160 42 -31 79 -54 82 -52 7 8 -92 80
-187 137 -46 28 -80 50 -77 50 4 0 42 -9 84 -21 85 -22 211 -81 269 -125 l36
-28 -7 -91 c-10 -136 -28 -217 -81 -360 -86 -235 -176 -350 -294 -378 -14 -3
-119 -2 -235 3 -260 11 -289 18 -565 147 -113 53 -206 96 -207 97 -5 4 63 76
71 76 4 0 92 -40 195 -89 102 -50 221 -101 263 -115 84 -29 237 -44 277 -29
21 8 1 16 -126 52 -83 23 -181 52 -219 65 -79 27 -355 144 -367 155 -4 4 7 36
24 71 45 90 106 257 125 340 8 38 20 70 26 70 16 0 167 -29 213 -41 71 -18
288 -101 360 -137 39 -19 107 -59 153 -88 45 -29 82 -52 82 -50 0 10 -31 88
-54 137 -24 50 -35 60 -103 99 -95 55 -233 107 -331 126 -42 8 -77 15 -78 17
-5 6 -22 162 -18 169 7 11 8 11 179 -11z m-831 -61 c87 -40 90 -22 -52 -287
-91 -169 -112 -199 -137 -196 -11 1 -14 0 -7 -3 19 -9 14 -27 -15 -61 l-28
-31 -83 35 -82 35 48 52 c111 122 213 296 275 469 4 9 8 17 10 17 2 0 34 -14
71 -30z m-1528 -741 c25 -6 47 -15 50 -20 2 -4 -66 -79 -152 -166 -86 -87
-165 -174 -175 -193 -31 -57 -21 -215 13 -194 7 4 8 3 4 -4 -30 -49 -116 137
-116 252 l0 51 152 147 c92 88 159 146 167 143 7 -3 33 -10 57 -16z m867 -314
c-6 -136 -14 -249 -17 -252 -8 -9 -444 -8 -453 0 -10 11 96 217 171 330 51 78
66 93 110 113 50 22 186 63 196 58 3 -1 0 -113 -7 -249z m-687 58 c-3 -32 -9
-100 -12 -150 -5 -65 -11 -93 -20 -93 -11 0 -104 37 -112 45 -2 2 26 56 62
121 36 65 66 122 66 126 0 5 5 8 11 8 8 0 10 -18 5 -57z m1373 -72 l154 -78
-2 -89 c-2 -54 -7 -91 -14 -96 -6 -4 -29 -10 -49 -13 -21 -4 -87 -31 -146 -61
-59 -29 -108 -54 -109 -54 -1 0 -2 106 -3 235 0 129 3 235 7 234 4 0 77 -35
162 -78z m422 -216 l61 -32 -79 5 c-43 2 -80 6 -81 8 -2 1 -1 16 3 33 7 34 7
34 96 -14z"/>
<path d="M2132 4966 c-35 -33 -37 -38 -37 -95 0 -49 4 -65 22 -82 l22 -22 7
39 c6 35 8 36 16 15 5 -13 6 -33 2 -43 -12 -38 41 9 70 62 33 60 32 96 -2 93
-19 -2 -22 2 -22 32 0 47 -27 47 -78 1z"/>
<path d="M2062 4723 c-29 -6 -36 -23 -28 -67 l6 -33 45 10 c42 10 98 3 145
-17 12 -5 19 3 28 27 16 46 15 64 -5 72 -23 9 -161 15 -191 8z"/>
<path d="M2246 4258 c-20 -17 -29 -36 -33 -68 -7 -61 16 -82 100 -91 34 -3 88
-10 119 -14 54 -7 56 -6 51 14 -3 12 -18 32 -34 45 -16 14 -29 27 -29 30 0 14
57 4 80 -14 28 -22 60 -26 60 -8 0 6 -10 27 -22 45 -30 43 -102 73 -192 80
-66 5 -74 3 -100 -19z"/>
<path d="M2930 4050 c0 -5 8 -10 19 -10 27 0 40 -21 48 -75 5 -43 7 -46 20
-30 18 25 17 75 -3 103 -11 15 -25 22 -50 22 -19 0 -34 -4 -34 -10z"/>
<path d="M2898 3989 c2 -17 -3 -47 -13 -69 -35 -78 14 -97 53 -20 27 55 29 96
3 110 -35 18 -48 13 -43 -21z"/>
<path d="M1155 2725 c3 -27 8 -76 12 -107 3 -32 10 -58 16 -58 15 0 1 139 -18
180 l-16 35 6 -50z"/>
<path d="M3633 2820 c-85 -25 -159 -67 -197 -112 -35 -40 -151 -246 -144 -253
2 -3 17 12 33 33 44 56 262 257 334 307 71 49 67 53 -26 25z"/>
<path d="M3747 2765 c-43 -15 -86 -42 -171 -109 -66 -51 -67 -59 -3 -22 23 13
87 43 142 65 55 23 111 46 124 52 13 5 22 11 20 13 -12 12 -80 13 -112 1z"/>
<path d="M3273 2628 c-41 -66 -124 -259 -123 -287 0 -3 29 48 63 114 35 66 73
136 85 155 12 19 22 41 22 48 0 24 -20 11 -47 -30z"/>
<path d="M1388 2402 c-27 -5 -21 -31 9 -43 36 -13 58 -8 58 15 0 21 -35 35
-67 28z"/>
<path d="M3381 1756 c-16 -19 10 -36 109 -72 155 -55 333 -159 433 -253 20
-19 37 -31 37 -25 0 19 -177 184 -252 234 -163 107 -295 154 -327 116z"/>
<path d="M3210 1031 c18 -11 205 -47 292 -55 55 -6 82 5 62 24 -5 5 -79 14
-164 20 -85 6 -166 13 -180 16 -19 4 -21 3 -10 -5z"/>
<path d="M3770 956 c-86 -24 -113 -55 -75 -86 28 -24 86 16 129 88 8 14 5 14
-54 -2z"/>
</g>
</svg>
